<mxfile host="app.diagrams.net" modified="2024-04-03T09:33:20.724Z" agent="Mozilla/5.0 (Windows NT 10.0; Win64; x64) AppleWebKit/537.36 (KHTML, like Gecko) Chrome/120.0.0.0 YaBrowser/24.1.0.0 Safari/537.36" etag="LcAZMj_E4z8DgL2jkl1h" version="24.2.1" type="github">
  <diagram id="C5RBs43oDa-KdzZeNtuy" name="Page-1">
    <mxGraphModel dx="1386" dy="791" grid="1" gridSize="10" guides="1" tooltips="1" connect="1" arrows="1" fold="1" page="1" pageScale="1" pageWidth="827" pageHeight="1169" math="0" shadow="0">
      <root>
        <mxCell id="WIyWlLk6GJQsqaUBKTNV-0" />
        <mxCell id="WIyWlLk6GJQsqaUBKTNV-1" parent="WIyWlLk6GJQsqaUBKTNV-0" />
        <mxCell id="s4k2YeB0r3TSK-daPB7c-6" style="edgeStyle=orthogonalEdgeStyle;rounded=0;orthogonalLoop=1;jettySize=auto;html=1;entryX=0.5;entryY=0;entryDx=0;entryDy=0;" edge="1" parent="WIyWlLk6GJQsqaUBKTNV-1" source="s4k2YeB0r3TSK-daPB7c-0" target="s4k2YeB0r3TSK-daPB7c-3">
          <mxGeometry relative="1" as="geometry" />
        </mxCell>
        <mxCell id="s4k2YeB0r3TSK-daPB7c-0" value="print(search(1, 2, 3, 4, 5, 6, ff=lambda x: x % 2))" style="rounded=1;whiteSpace=wrap;html=1;" vertex="1" parent="WIyWlLk6GJQsqaUBKTNV-1">
          <mxGeometry x="170" y="70" width="150" height="60" as="geometry" />
        </mxCell>
        <mxCell id="s4k2YeB0r3TSK-daPB7c-9" style="edgeStyle=orthogonalEdgeStyle;rounded=0;orthogonalLoop=1;jettySize=auto;html=1;" edge="1" parent="WIyWlLk6GJQsqaUBKTNV-1" source="s4k2YeB0r3TSK-daPB7c-1">
          <mxGeometry relative="1" as="geometry">
            <mxPoint x="245" y="640" as="targetPoint" />
          </mxGeometry>
        </mxCell>
        <mxCell id="s4k2YeB0r3TSK-daPB7c-1" value="print(search(&#39;Алексей&#39;, &#39;Кольцов&#39;, &#39;Евгений&#39;,&#xa;&#39;Баратынский&#39;, &#39;Федор&#39;, &#39;Тютчев&#39;, &#39;Афанасий&#39;, &#39;Фет&#39;,&#xa;&#39;Николай&#39;, &#39;Некрасов&#39;, &#39;избранные&#39; &#39;лирические&#39;,&#xa;&#39;стихотворения&#39;))" style="rounded=1;whiteSpace=wrap;html=1;" vertex="1" parent="WIyWlLk6GJQsqaUBKTNV-1">
          <mxGeometry x="110" y="470" width="270" height="100" as="geometry" />
        </mxCell>
        <mxCell id="s4k2YeB0r3TSK-daPB7c-8" style="edgeStyle=orthogonalEdgeStyle;rounded=0;orthogonalLoop=1;jettySize=auto;html=1;entryX=0.5;entryY=0;entryDx=0;entryDy=0;" edge="1" parent="WIyWlLk6GJQsqaUBKTNV-1" source="s4k2YeB0r3TSK-daPB7c-2" target="s4k2YeB0r3TSK-daPB7c-1">
          <mxGeometry relative="1" as="geometry" />
        </mxCell>
        <mxCell id="s4k2YeB0r3TSK-daPB7c-2" value="print(search(100, 12, 35, 505, 12, 15376, ff=lambda x: int(x**0.5)**2==x))" style="rounded=1;whiteSpace=wrap;html=1;" vertex="1" parent="WIyWlLk6GJQsqaUBKTNV-1">
          <mxGeometry x="160" y="330" width="170" height="80" as="geometry" />
        </mxCell>
        <mxCell id="s4k2YeB0r3TSK-daPB7c-7" style="edgeStyle=orthogonalEdgeStyle;rounded=0;orthogonalLoop=1;jettySize=auto;html=1;" edge="1" parent="WIyWlLk6GJQsqaUBKTNV-1" source="s4k2YeB0r3TSK-daPB7c-3" target="s4k2YeB0r3TSK-daPB7c-2">
          <mxGeometry relative="1" as="geometry" />
        </mxCell>
        <mxCell id="s4k2YeB0r3TSK-daPB7c-3" value="print(search(&quot;Apple&quot;, &quot;banana&quot;, &quot;Cat&quot;, &quot;Nikita&quot;, &quot;andrey&quot;,&#39;пух&#39;, &#39;Пушидзе&#39;, ff=lambda x: x))" style="rounded=1;whiteSpace=wrap;html=1;" vertex="1" parent="WIyWlLk6GJQsqaUBKTNV-1">
          <mxGeometry x="155" y="190" width="180" height="90" as="geometry" />
        </mxCell>
        <mxCell id="s4k2YeB0r3TSK-daPB7c-11" style="edgeStyle=orthogonalEdgeStyle;rounded=0;orthogonalLoop=1;jettySize=auto;html=1;entryX=0.5;entryY=0;entryDx=0;entryDy=0;" edge="1" parent="WIyWlLk6GJQsqaUBKTNV-1" source="s4k2YeB0r3TSK-daPB7c-10" target="s4k2YeB0r3TSK-daPB7c-13">
          <mxGeometry relative="1" as="geometry">
            <mxPoint x="245" y="750" as="targetPoint" />
          </mxGeometry>
        </mxCell>
        <mxCell id="s4k2YeB0r3TSK-daPB7c-10" value="if all(isinstance(arg, int) for arg in args):" style="rounded=1;whiteSpace=wrap;html=1;" vertex="1" parent="WIyWlLk6GJQsqaUBKTNV-1">
          <mxGeometry x="185" y="640" width="120" height="60" as="geometry" />
        </mxCell>
        <mxCell id="s4k2YeB0r3TSK-daPB7c-18" style="edgeStyle=orthogonalEdgeStyle;rounded=0;orthogonalLoop=1;jettySize=auto;html=1;" edge="1" parent="WIyWlLk6GJQsqaUBKTNV-1" source="s4k2YeB0r3TSK-daPB7c-13">
          <mxGeometry relative="1" as="geometry">
            <mxPoint x="245" y="890" as="targetPoint" />
          </mxGeometry>
        </mxCell>
        <mxCell id="s4k2YeB0r3TSK-daPB7c-13" value="return tuple(filter(ff, args))" style="rounded=1;whiteSpace=wrap;html=1;" vertex="1" parent="WIyWlLk6GJQsqaUBKTNV-1">
          <mxGeometry x="185" y="770" width="120" height="60" as="geometry" />
        </mxCell>
        <mxCell id="s4k2YeB0r3TSK-daPB7c-14" value="Yes" style="text;html=1;align=center;verticalAlign=middle;whiteSpace=wrap;rounded=0;" vertex="1" parent="WIyWlLk6GJQsqaUBKTNV-1">
          <mxGeometry x="170" y="720" width="60" height="30" as="geometry" />
        </mxCell>
        <mxCell id="s4k2YeB0r3TSK-daPB7c-15" value="No" style="text;html=1;align=center;verticalAlign=middle;whiteSpace=wrap;rounded=0;" vertex="1" parent="WIyWlLk6GJQsqaUBKTNV-1">
          <mxGeometry x="470" y="340" width="60" height="30" as="geometry" />
        </mxCell>
        <mxCell id="s4k2YeB0r3TSK-daPB7c-17" value="" style="edgeStyle=elbowEdgeStyle;elbow=horizontal;endArrow=classic;html=1;curved=0;rounded=0;endSize=8;startSize=8;entryX=1;entryY=0.5;entryDx=0;entryDy=0;entryPerimeter=0;" edge="1" parent="WIyWlLk6GJQsqaUBKTNV-1">
          <mxGeometry width="50" height="50" relative="1" as="geometry">
            <mxPoint x="305" y="670" as="sourcePoint" />
            <mxPoint x="320" y="100" as="targetPoint" />
            <Array as="points">
              <mxPoint x="530" y="370" />
            </Array>
          </mxGeometry>
        </mxCell>
        <mxCell id="s4k2YeB0r3TSK-daPB7c-20" style="edgeStyle=orthogonalEdgeStyle;rounded=0;orthogonalLoop=1;jettySize=auto;html=1;entryX=0.5;entryY=0;entryDx=0;entryDy=0;entryPerimeter=0;" edge="1" parent="WIyWlLk6GJQsqaUBKTNV-1" source="s4k2YeB0r3TSK-daPB7c-19" target="s4k2YeB0r3TSK-daPB7c-21">
          <mxGeometry relative="1" as="geometry">
            <mxPoint x="245" y="1000" as="targetPoint" />
          </mxGeometry>
        </mxCell>
        <mxCell id="s4k2YeB0r3TSK-daPB7c-19" value="elif all(isinstance(arg, str) for arg in args):" style="rounded=1;whiteSpace=wrap;html=1;" vertex="1" parent="WIyWlLk6GJQsqaUBKTNV-1">
          <mxGeometry x="185" y="890" width="120" height="60" as="geometry" />
        </mxCell>
        <mxCell id="s4k2YeB0r3TSK-daPB7c-21" value="filter_str=filter(ff,args)&#xa;    return tuple(filter_str)" style="rounded=1;whiteSpace=wrap;html=1;" vertex="1" parent="WIyWlLk6GJQsqaUBKTNV-1">
          <mxGeometry x="185" y="1010" width="120" height="60" as="geometry" />
        </mxCell>
        <mxCell id="s4k2YeB0r3TSK-daPB7c-22" value="Yes" style="text;html=1;align=center;verticalAlign=middle;whiteSpace=wrap;rounded=0;" vertex="1" parent="WIyWlLk6GJQsqaUBKTNV-1">
          <mxGeometry x="180" y="970" width="60" height="30" as="geometry" />
        </mxCell>
        <mxCell id="s4k2YeB0r3TSK-daPB7c-23" value="" style="edgeStyle=elbowEdgeStyle;elbow=horizontal;endArrow=classic;html=1;curved=0;rounded=0;endSize=8;startSize=8;entryX=1;entryY=0.25;entryDx=0;entryDy=0;" edge="1" parent="WIyWlLk6GJQsqaUBKTNV-1" target="s4k2YeB0r3TSK-daPB7c-0">
          <mxGeometry width="50" height="50" relative="1" as="geometry">
            <mxPoint x="305" y="1040" as="sourcePoint" />
            <mxPoint x="230" y="16" as="targetPoint" />
            <Array as="points">
              <mxPoint x="720" y="910" />
            </Array>
          </mxGeometry>
        </mxCell>
      </root>
    </mxGraphModel>
  </diagram>
</mxfile>
